HIERARCHY
ROOT Hips
{
    OFFSET 0.000000 0.000000 0.000000
    CHANNELS 6 Xposition Yposition Zposition Zrotation Xrotation Yrotation
        JOINT Chest
        {
            OFFSET -0.000000 28.596201 -0.000000
            CHANNELS 3 Zrotation Xrotation Yrotation
            JOINT Neck
            {
                OFFSET -0.000000 20.833183 0.000000
                CHANNELS 3 Zrotation Xrotation Yrotation
                JOINT Head
                {
                    OFFSET -0.000000 10.327778 0.000000
                    CHANNELS 3 Zrotation Xrotation Yrotation
                    End Site
                    {
                        OFFSET -0.000000 15.961117 0.000000
                    }
                }
            }
            JOINT LeftCollar
            {
                OFFSET -0.000000 20.833183 0.000000
                CHANNELS 3 Zrotation Xrotation Yrotation
                JOINT LeftShoulder
                {
                    OFFSET 18.777777 -0.000000 0.000000
                    CHANNELS 3 Zrotation Xrotation Yrotation
                    JOINT LeftElbow
                    {
                        OFFSET 23.016544 0.000000 0.000000
                        CHANNELS 3 Zrotation Xrotation Yrotation
                        JOINT LeftWrist
                        {
                            OFFSET 24.619797 0.000000 0.000000
                            CHANNELS 3 Zrotation Xrotation Yrotation
                            End Site
                            {
                                OFFSET 0.000000 -14.083333 0.000000
                            }
                        }
                    }
                }
            }
            JOINT RightCollar
            {
                OFFSET -0.000000 20.833183 0.000000
                CHANNELS 3 Zrotation Xrotation Yrotation
                JOINT RightShoulder
                {
                    OFFSET -18.777777 0.000000 0.000000
                    CHANNELS 3 Zrotation Xrotation Yrotation
                    JOINT RightElbow
                    {
                        OFFSET -23.016544 0.000000 0.000000
                        CHANNELS 3 Zrotation Xrotation Yrotation
                        JOINT RightWrist
                        {
                            OFFSET -24.619797 0.000000 0.000000
                            CHANNELS 3 Zrotation Xrotation Yrotation
                            End Site
                            {
                                OFFSET -0.000000 -14.083333 0.000000
                            }
                        }
                    }
                }
            }
        }
    JOINT LeftHip
    {
        OFFSET 11.266668 0.000000 0.000000
        CHANNELS 3 Zrotation Xrotation Yrotation
        JOINT LeftKnee
        {
            OFFSET -0.000000 -40.535309 0.000000
            CHANNELS 3 Zrotation Xrotation Yrotation
            JOINT LeftAnkle
            {
                OFFSET -0.000000 -39.958225 0.000000
                CHANNELS 3 Zrotation Xrotation Yrotation
                End Site
                {
                    OFFSET -0.000000 -4.694444 15.961117
                }
            }
        }
    }
    JOINT RightHip
    {
        OFFSET -11.266668 0.000000 0.000000
        CHANNELS 3 Zrotation Xrotation Yrotation
        JOINT RightKnee
        {
            OFFSET -0.000000 -40.535309 0.000000
            CHANNELS 3 Zrotation Xrotation Yrotation
            JOINT RightAnkle
            {
                OFFSET -0.000000 -39.958225 0.000000
                CHANNELS 3 Zrotation Xrotation Yrotation
                End Site
                {
                    OFFSET -0.000000 -4.694444 15.961117
                }
            }
        }
    }
}
MOTION
Frames:    12
Frame Time:    0.010000
58.066673    88.916031    -35.888279    3.545727    -3.312998    -73.068039    -0.645372    -2.464437    4.822109    -11.818782    13.918665    12.950181    -3.624589    -23.278683    11.835533    -14.652589    -4.143794    31.431255    12.960322    67.767113    -81.052734    31.173742    -22.255575    -70.454857    97.813576    32.198391    106.554153    20.948313    -0.301096    -1.521598    33.257393    50.127720    7.102713    6.874997    6.060255    83.188583    -114.152802    -16.192493    -3.156257    -1.519266    4.577281    8.754266    2.842519    3.578797    -2.279299    -5.851881    -12.506944    30.110016    -6.171986    -2.844597    -5.934733    -11.430004    17.954052    7.849941    12.966642    -15.137392    -14.432918    
58.031124    88.902367    -35.986435    3.353046    -3.180769    -72.969154    -0.987567    -2.294517    4.614467    -8.719549    15.102141    11.550091    -2.893814    -21.387062    9.788239    -14.185933    -3.797470    29.484163    14.858423    67.850639    -82.563591    31.232449    -22.263647    -70.284271    97.642067    32.254108    106.855362    21.478352    -0.485829    -3.378946    33.475399    49.819027    7.180517    6.709428    5.835969    83.255478    -114.416115    -16.209833    -3.120347    -1.164691    4.552560    9.283722    2.759463    3.882481    -2.885374    -5.894592    -12.626267    30.060190    -5.866246    -2.668026    -5.961792    -11.507557    17.915379    7.565770    12.409573    -14.976131    -14.222190    
58.070744    88.905403    -35.988445    3.475912    -3.208910    -72.972916    -1.097974    -2.332471    4.627130    -8.821374    15.065489    11.590054    -2.890710    -21.567831    9.872042    -14.207762    -3.770427    29.530117    15.073522    67.752876    -82.777924    31.266699    -22.234863    -70.225739    97.782120    32.268036    107.095062    21.439859    -0.560339    -3.269678    33.596687    49.921429    7.009621    6.686099    5.976911    83.282684    -114.640839    -16.244059    -3.112386    -1.247620    4.407751    8.820560    2.749329    3.880935    -2.366070    -5.852715    -12.500557    30.039938    -5.986084    -2.883146    -5.994346    -11.437260    18.046762    7.640522    12.752197    -15.015136    -14.246715    
58.082355    88.912262    -36.025150    3.464148    -3.175195    -72.952194    -1.107401    -2.252098    4.586463    -8.773026    15.005904    11.550324    -2.863368    -21.567102    9.844509    -14.227702    -3.749543    29.503475    15.447643    67.645607    -83.141556    31.308001    -22.239891    -70.130989    97.789246    32.278793    107.280807    21.403152    -0.597870    -3.275181    33.629093    49.995136    6.992802    6.740453    6.021665    83.294556    -114.980339    -16.284603    -3.089483    -1.164343    4.344391    8.800750    2.715443    3.971274    -2.352875    -5.844817    -12.485998    30.029781    -5.936960    -2.916181    -6.010009    -11.428851    18.084778    7.589734    12.732702    -14.983891    -14.195980    
58.099102    88.922905    -36.066483    3.457309    -3.135670    -72.938293    -1.116807    -2.169024    4.547215    -8.744599    14.935541    11.519100    -2.824056    -21.575796    9.829866    -14.227383    -3.772090    29.487595    15.845351    67.566811    -83.552940    31.387411    -22.278393    -69.977043    97.763496    32.235920    107.438438    21.361597    -0.635126    -3.261543    33.650913    50.073158    6.988996    6.786681    6.033877    83.315422    -115.238724    -16.369028    -2.960924    -1.074545    4.271093    8.764564    2.677598    4.064126    -2.322344    -5.836288    -12.467850    30.027023    -5.885356    -2.964310    -6.023849    -11.416471    18.128887    7.544032    12.711740    -14.950093    -14.144726    
58.121048    88.936729    -36.111767    3.457666    -3.088893    -72.936081    -1.127652    -2.088276    4.512965    -8.718883    14.864938    11.490077    -2.775070    -21.589897    9.819116    -14.250826    -3.753177    29.466469    16.176456    67.460365    -83.841850    31.334557    -22.225832    -69.988533    97.877487    32.316326    107.688515    21.324287    -0.613194    -3.238359    33.657295    50.083614    6.995800    6.854980    6.132741    83.323784    -115.567970    -16.467035    -2.825866    -0.979320    4.188210    8.710242    2.636472    4.154768    -2.269464    -5.829788    -12.447627    30.032644    -5.830505    -3.031361    -6.033508    -11.401018    18.178690    7.506850    12.684382    -14.913709    -14.093914    
58.148540    88.952957    -36.160770    3.468222    -3.034132    -72.948776    -1.139489    -2.014283    4.486217    -8.695627    14.795696    11.465121    -2.720012    -21.610428    9.812809    -14.260670    -3.758725    29.441036    16.447920    67.363388    -84.110352    31.376877    -22.217770    -69.899918    97.869026    32.243233    107.789787    21.289116    -0.571586    -3.205686    33.637409    50.071972    7.033917    6.915501    6.196674    83.339577    -115.885002    -16.584692    -2.647882    -0.880121    4.095286    8.629558    2.592224    4.238396    -2.183575    -5.827477    -12.425509    30.046684    -5.772359    -3.121759    -6.037263    -11.383160    18.234619    7.481513    12.647659    -14.875977    -14.045526    
58.181824    88.970581    -36.213326    3.490750    -2.972216    -72.977203    -1.153987    -1.949432    4.467272    -8.667340    14.730307    11.442347    -2.666459    -21.636915    9.808686    -14.269749    -3.763834    29.405844    16.624823    67.274994    -84.267601    31.323502    -22.182417    -69.903954    97.976440    32.258156    107.944656    21.251839    -0.597531    -3.168652    33.627743    50.117611    7.059763    6.956456    6.163910    83.372795    -116.177429    -16.712654    -2.433636    -0.779306    3.993329    8.508018    2.544864    4.310176    -2.048715    -5.830701    -12.399859    30.068182    -5.712202    -3.237174    -6.033927    -11.362564    18.296675    7.467916    12.602091    -14.837861    -14.000089    
58.220627    88.988457    -36.269035    3.525207    -2.905585    -73.020432    -1.172692    -1.893239    4.455307    -8.634908    14.666473    11.423440    -2.617062    -21.666845    9.808463    -14.295566    -3.739017    29.362059    16.683422    67.163811    -84.285660    31.215591    -22.099922    -69.994125    98.108482    32.264633    108.026352    21.218094    -0.561359    -3.127780    33.612743    50.086079    7.078736    7.035085    6.294658    83.376312    -116.549278    -16.827438    -2.243079    -0.680100    3.884853    8.334189    2.494992    4.366957    -1.853141    -5.839055    -12.368528    30.095425    -5.652610    -3.375359    -6.022729    -11.338024    18.363337    7.462329    12.550771    -14.800022    -13.956377    
58.264206    89.005432    -36.327328    3.569988    -2.837226    -73.076683    -1.197669    -1.843233    4.448871    -8.594192    14.603416    11.408170    -2.577804    -21.697729    9.810154    -14.290691    -3.768376    29.312292    16.700109    67.092056    -84.315926    31.182856    -22.098404    -69.975044    98.151131    32.151943    107.971626    21.179697    -0.587292    -3.087444    33.579792    50.122597    7.127721    7.085558    6.272926    83.404678    -116.856499    -16.951000    -2.011087    -0.585662    3.772828    8.106391    2.444457    4.407987    -1.595086    -5.850649    -12.329412    30.126444    -5.596373    -3.531425    -6.002842    -11.307775    18.432583    7.459182    12.498947    -14.763374    -13.912457    
58.311684    89.020500    -36.387764    3.622403    -2.769876    -73.144508    -1.230058    -1.794936    4.446724    -8.542898    14.538832    11.394808    -2.551571    -21.727104    9.813247    -14.313897    -3.749286    29.254719    16.651609    66.992226    -84.214256    31.024218    -21.983061    -70.152657    98.332352    32.195976    108.025192    21.141399    -0.550925    -3.051239    33.529270    50.093815    7.191132    7.163521    6.398432    83.404335    -117.252319    -17.056816    -1.832402    -0.498514    3.659098    7.835628    2.396807    4.436613    -1.285194    -5.863745    -12.282258    30.159361    -5.545492    -3.699397    -5.972214    -11.270002    18.502352    7.452553    12.453968    -14.728735    -13.867131    
58.362316    89.032951    -36.450256    3.679088    -2.704953    -73.223076    -1.268751    -1.742337    4.447459    -8.486259    14.468944    11.384844    -2.535446    -21.755320    9.818798    -14.335957    -3.738934    29.195799    16.633844    66.880798    -84.174438    30.908390    -21.945858    -70.251595    98.450165    32.147812    107.941307    21.094145    -0.568230    -3.019144    33.449051    50.137089    7.302575    7.141197    6.378746    83.435333    -117.547607    -17.161865    -1.649163    -0.419487    3.544499    7.541688    2.356226    4.458292    -0.942385    -5.877455    -12.228498    30.192575    -5.499910    -3.873225    -5.927406    -11.223315    18.570440    7.436947    12.422191    -14.696283    -13.820275    
